<svg xmlns="http://www.w3.org/2000/svg" version="1.1" xmlns:xlink="http://www.w3.org/1999/xlink" width="200" height="200"><svg xmlns="http://www.w3.org/2000/svg" version="1.1" xmlns:xlink="http://www.w3.org/1999/xlink" viewBox="0 0 200 200"><rect width="200" height="200" fill="url('#gradient')"></rect><defs><linearGradient id="SvgjsLinearGradient1001" gradientTransform="rotate(45 0.5 0.5)"><stop offset="0%" stop-color="#ceaa96"></stop><stop offset="100%" stop-color="#8fa983"></stop></linearGradient></defs><g><g fill="#445272" transform="matrix(3.487812666311868,0,0,3.487812666311868,34.77673025662878,124.78528285531556)" stroke="#c8512e" stroke-width="0.2"><path d="M12.24-14.22L12.24-11.57L7.97-11.57L7.97 0L4.54 0L4.54-11.57L0.35-11.57L0.35-14.22L12.24-14.22ZM25-14.22L25-11.57L20.73-11.57L20.73 0L17.30 0L17.30-11.57L13.12-11.57L13.12-14.22L25-14.22ZM33.62-3.78L33.62-3.78Q33.62-4.53 33.09-4.95Q32.56-5.37 31.22-5.82Q29.88-6.27 29.03-6.69L29.03-6.69Q26.27-8.05 26.27-10.42L26.27-10.42Q26.27-11.60 26.96-12.50Q27.65-13.41 28.91-13.91Q30.17-14.41 31.74-14.41L31.74-14.41Q33.27-14.41 34.49-13.87Q35.70-13.32 36.38-12.31Q37.05-11.30 37.05-10L37.05-10L33.63-10Q33.63-10.87 33.10-11.35Q32.57-11.83 31.66-11.83L31.66-11.83Q30.74-11.83 30.21-11.42Q29.68-11.02 29.68-10.39L29.68-10.39Q29.68-9.84 30.26-9.40Q30.85-8.96 32.32-8.48Q33.80-8.01 34.75-7.46L34.75-7.46Q37.05-6.13 37.05-3.80L37.05-3.80Q37.05-1.93 35.64-0.87Q34.24 0.20 31.79 0.20L31.79 0.20Q30.06 0.20 28.66-0.42Q27.26-1.04 26.55-2.12Q25.84-3.20 25.84-4.61L25.84-4.61L29.28-4.61Q29.28-3.47 29.87-2.92Q30.46-2.38 31.79-2.38L31.79-2.38Q32.64-2.38 33.13-2.75Q33.62-3.12 33.62-3.78Z"></path></g></g></svg><style>@media (prefers-color-scheme: light) { :root { filter: none; } }
@media (prefers-color-scheme: dark) { :root { filter: none; } }
</style></svg>